<?xml version="1.0" standalone="no"?><!DOCTYPE svg PUBLIC "-//W3C//DTD SVG 1.1//EN" "http://www.w3.org/Graphics/SVG/1.1/DTD/svg11.dtd"><svg t="1678018373981" class="icon" viewBox="0 0 1024 1024" version="1.1" xmlns="http://www.w3.org/2000/svg" p-id="5418" width="40" height="40" xmlns:xlink="http://www.w3.org/1999/xlink"><path d="M710.997333 938.24h-398.08A227.968 227.968 0 0 1 145.066667 878.933333a228.096 228.096 0 0 1-59.264-167.936v-398.08a228.053333 228.053333 0 0 1 59.221333-167.936A228.138667 228.138667 0 0 1 312.96 85.76h398.08a227.754667 227.754667 0 0 1 167.765333 59.221333 229.205333 229.205333 0 0 1 59.434667 167.978667v398.08a228.266667 228.266667 0 0 1-59.264 167.936 228.138667 228.138667 0 0 1-167.978667 59.264z" fill="#200E32" opacity=".4" p-id="5419"></path><path d="M727.68 443.648l-279.594667 280.96a76.8 76.8 0 0 1-53.589333 22.058667H296.874667a19.754667 19.754667 0 0 1-14.122667-5.845334 19.498667 19.498667 0 0 1-5.418667-14.122666l2.474667-98.688c0.426667-19.541333 8.32-37.845333 22.016-51.626667l198.186667-198.528a9.002667 9.002667 0 0 1 12.458666 0l69.504 69.248a26.24 26.24 0 0 0 18.261334 7.466667c15.36 0 27.434667-12.501333 27.434666-27.477334a28.202667 28.202667 0 0 0-7.466666-19.157333c-1.28-1.664-67.413333-67.541333-67.413334-67.541333a11.093333 11.093333 0 0 1 0-15.36l27.818667-28.330667a65.578667 65.578667 0 0 1 93.013333 0l54.058667 54.101333a66.133333 66.133333 0 0 1 0 92.842667z" fill="#200E32" p-id="5420"></path></svg>