<?xml version="1.0" standalone="no"?><!DOCTYPE svg PUBLIC "-//W3C//DTD SVG 1.1//EN" "http://www.w3.org/Graphics/SVG/1.1/DTD/svg11.dtd"><svg t="1678887533427" class="icon" viewBox="0 0 1024 1024" version="1.1" xmlns="http://www.w3.org/2000/svg" p-id="41391" xmlns:xlink="http://www.w3.org/1999/xlink" width="48" height="48"><path d="M510.756571 73.142857a47.030857 47.030857 0 0 1 7.606858 93.403429l-7.606858 0.658285H198.509714a31.378286 31.378286 0 0 0-30.72 25.014858l-0.585143 6.290285v626.980572c0 15.140571 10.752 27.794286 25.014858 30.72l6.290285 0.585143h626.980572c15.140571 0 27.794286-10.752 30.72-25.014858l0.585143-6.290285V484.205714a47.030857 47.030857 0 0 1 93.476571-7.606857L950.857143 484.205714v341.211429c0 65.389714-50.102857 119.076571-113.956572 124.854857l-11.410285 0.512H198.509714a125.366857 125.366857 0 0 1-124.854857-113.956571L73.142857 825.490286V198.509714c0-65.389714 50.102857-119.076571 113.956572-124.854857L198.509714 73.142857h312.246857z m321.389715 41.691429a56.612571 56.612571 0 0 1 80.091428 0.438857c20.187429 20.406857 21.942857 52.077714 5.412572 74.532571l-5.485715 6.363429L490.642286 620.982857l-70.948572 15.067429a23.478857 23.478857 0 0 1-28.379428-24.502857l0.950857-5.339429 21.942857-68.388571 417.938286-422.985143z" fill="#0077F6" p-id="41392"></path></svg>