<?xml version="1.0" standalone="no"?><!DOCTYPE svg PUBLIC "-//W3C//DTD SVG 1.1//EN" "http://www.w3.org/Graphics/SVG/1.1/DTD/svg11.dtd"><svg t="1678804507772" class="icon" viewBox="0 0 1024 1024" version="1.1" xmlns="http://www.w3.org/2000/svg" p-id="6258" width="48" height="48" xmlns:xlink="http://www.w3.org/1999/xlink"><path d="M725.8 879.5h-428c-54.2 0-98.2-44.1-98.2-98.2V627.6c0-18.1 14.7-32.7 32.7-32.7s32.7 14.7 32.7 32.7v153.7c0 18.1 14.7 32.7 32.7 32.7h428c18.1 0 32.7-14.7 32.7-32.7V627.6c0-18.1 14.7-32.7 32.7-32.7s32.7 14.7 32.7 32.7v153.7c0.3 54.2-43.8 98.2-98 98.2z" fill="#457bda" p-id="6259"></path><path d="M895.2 825c-18 0-32.7-14.6-32.7-32.6l-0.9-287.6c0-9 0.3-17.7 0.5-26.2 1.3-45.8 0-65.8-18.1-78.6L558.5 205.2c-35.9-23.9-60.7-24-94.5-0.4L183.9 406.4c-21.6 23.3-21.4 59.7 0.7 82.7l35.4 29.3c13.9 11.5 15.9 32.2 4.3 46.1-11.5 13.9-32.2 15.9-46.1 4.3l-37.9-31.4-1.1-1.1c-49.1-49.1-49.1-129 0-178l1.9-1.9 285.2-205.3c28.2-19.7 55.4-29.4 83.3-29.5 28-0.1 55.9 9.4 85.4 29.1l0.3 0.2 286.2 195.3c48.9 34.3 47.4 87.4 46.1 134.2-0.2 8-0.5 16.2-0.5 24.3l0.9 287.4c0.1 18.1-14.6 32.8-32.6 32.9h-0.2z" fill="#457bda" p-id="6260"></path><path d="M718.3 534.6c-5.5 0-11-1.6-15.9-4.9-18.1-12.3-37.5-22.8-57.6-31.3-20.5-8.7-41.9-15.3-63.6-19.8-44.7-9.1-92.1-9.1-136.8 0-21.8 4.5-43.2 11.1-63.6 19.8-20.1 8.5-39.5 19-57.6 31.3-13 8.8-30.6 5.4-39.4-7.6-8.8-13-5.4-30.6 7.6-39.4 21.2-14.3 43.8-26.6 67.3-36.5 23.9-10.1 48.9-17.9 74.4-23.1 52.2-10.7 107.4-10.7 159.5 0 25.4 5.2 50.5 13 74.4 23.1 23.5 9.9 46.1 22.2 67.3 36.5 13 8.8 16.4 26.4 7.6 39.4-5.6 8.1-14.5 12.5-23.6 12.5z" fill="#457bda" p-id="6261"></path><path d="M512 711m-15 0a15 15 0 1 0 30 0 15 15 0 1 0-30 0Z" fill="#457bda" p-id="6262"></path><path d="M389 634.8h-70c-8.2 0-15-6.8-15-15 0-8.3 6.8-15 15-15h70c8.3 0 15 6.8 15 15s-6.8 15-15 15zM705 634.8h-70c-8.2 0-15-6.8-15-15 0-8.3 6.8-15 15-15h70c8.3 0 15 6.8 15 15s-6.7 15-15 15z" fill="#457bda" p-id="6263"></path></svg>